<svg width="25" height="26" viewBox="0 0 25 26" fill="none" xmlns="http://www.w3.org/2000/svg">
<path d="M24.7538 10.3639C24.9132 11.2178 25 12.1106 25 13.0423C25 20.3299 20.1226 25.5118 12.7559 25.5118C11.0806 25.5124 9.42169 25.1828 7.87384 24.5419C6.32599 23.901 4.91958 22.9615 3.73498 21.7769C2.55039 20.5923 1.61081 19.1859 0.969947 17.638C0.329083 16.0902 -0.000510188 14.4312 5.9277e-07 12.7559C-0.000510188 11.0806 0.329083 9.42169 0.969947 7.87384C1.61081 6.32599 2.55039 4.91958 3.73498 3.73498C4.91958 2.55039 6.32599 1.61081 7.87384 0.969947C9.42169 0.329083 11.0806 -0.000510188 12.7559 5.9277e-07C16.2002 5.9277e-07 19.0782 1.2673 21.2862 3.32504L17.6904 6.9209V6.91183C16.3518 5.63676 14.653 4.98238 12.7559 4.98238C8.54714 4.98238 5.12621 8.53807 5.12621 12.7481C5.12621 16.9569 8.54714 20.5204 12.7559 20.5204C16.5747 20.5204 19.1741 18.337 19.7079 15.3385H12.7559V10.3639H24.7551H24.7538Z" fill="white"/>
</svg>
