<svg width="25" height="30" viewBox="0 0 25 30" fill="none" xmlns="http://www.w3.org/2000/svg">
<path d="M20.9013 15.726C20.887 13.2868 21.9921 11.4485 24.2239 10.093C22.9757 8.30472 21.0873 7.32117 18.598 7.13162C16.2411 6.94564 13.6624 8.50501 12.7182 8.50501C11.7203 8.50501 9.43848 7.19599 7.64306 7.19599C3.93777 7.25322 0 10.1502 0 16.0443C0 17.7861 0.318312 19.5851 0.954936 21.4378C1.80615 23.877 4.87482 29.8534 8.07582 29.7568C9.74964 29.7175 10.9335 28.5694 13.1116 28.5694C15.2253 28.5694 16.3197 29.7568 18.1867 29.7568C21.4163 29.7103 24.1917 24.2775 25 21.8312C20.6688 19.789 20.9013 15.8512 20.9013 15.726V15.726ZM17.1423 4.8176C18.9557 2.66452 18.7911 0.704578 18.7375 0C17.1352 0.09299 15.2825 1.09084 14.2275 2.3176C13.0651 3.63376 12.382 5.26109 12.5286 7.09585C14.2597 7.22818 15.8405 6.33763 17.1423 4.8176V4.8176Z" fill="#1225BA"/>
</svg>
